<svg width="41" height="41" viewBox="0 0 41 41" fill="none" xmlns="http://www.w3.org/2000/svg">
<path d="M37.5729 8.49982H29.7498C29.3866 6.26303 28.2733 4.23231 26.6075 2.76789C24.9417 1.30347 22.831 0.5 20.6498 0.5C18.4686 0.5 16.3579 1.30347 14.692 2.76789C13.0262 4.23231 11.913 6.26303 11.5498 8.49982H3.7267C2.91093 8.50078 2.12884 8.83823 1.552 9.43814C0.975166 10.0381 0.650696 10.8514 0.64978 11.6998V37.3C0.650696 38.1484 0.975166 38.9618 1.552 39.5617C2.12884 40.1616 2.91093 40.499 3.7267 40.5H37.5729C38.3886 40.499 39.1707 40.1616 39.7476 39.5617C40.3244 38.9618 40.6489 38.1484 40.6498 37.3V11.6998C40.6489 10.8514 40.3244 10.0381 39.7476 9.43814C39.1707 8.83823 38.3886 8.50078 37.5729 8.49982ZM20.6498 3.6998C22.0137 3.70165 23.3385 4.17382 24.4168 5.04239C25.4951 5.91097 26.266 7.1269 26.6088 8.49982H14.6907C15.0336 7.1269 15.8045 5.91097 16.8828 5.04239C17.9611 4.17382 19.2859 3.70165 20.6498 3.6998ZM37.5729 37.3H3.7267V11.6998H11.419V16.4999C11.419 16.9242 11.5811 17.3312 11.8696 17.6312C12.1581 17.9313 12.5494 18.0999 12.9575 18.0999C13.3655 18.0999 13.7568 17.9313 14.0453 17.6312C14.3338 17.3312 14.4959 16.9242 14.4959 16.4999V11.6998H26.8036V16.4999C26.8036 16.9242 26.9657 17.3312 27.2542 17.6312C27.5427 17.9313 27.9341 18.0999 28.3421 18.0999C28.7501 18.0999 29.1414 17.9313 29.4299 17.6312C29.7185 17.3312 29.8806 16.9242 29.8806 16.4999V11.6998H37.5729V37.3Z" fill="black"/>
</svg>
