<svg width="44" height="44" viewBox="0 0 44 44" fill="none" xmlns="http://www.w3.org/2000/svg">
<path d="M13.2 19.795C13.2 19.2115 13.4318 18.6519 13.8444 18.2393C14.257 17.8267 14.8165 17.595 15.4 17.595H28.6C29.1835 17.595 29.743 17.8267 30.1556 18.2393C30.5682 18.6519 30.8 19.2115 30.8 19.795C30.8 20.3784 30.5682 20.938 30.1556 21.3506C29.743 21.7632 29.1835 21.9949 28.6 21.9949H15.4C14.8165 21.9949 14.257 21.7632 13.8444 21.3506C13.4318 20.938 13.2 20.3784 13.2 19.795ZM15.4 26.3949C14.8165 26.3949 14.257 26.6267 13.8444 27.0393C13.4318 27.4519 13.2 28.0115 13.2 28.5949C13.2 29.1784 13.4318 29.738 13.8444 30.1506C14.257 30.5632 14.8165 30.7949 15.4 30.7949H24.2C24.7835 30.7949 25.343 30.5632 25.7556 30.1506C26.1682 29.738 26.4 29.1784 26.4 28.5949C26.4 28.0115 26.1682 27.4519 25.7556 27.0393C25.343 26.6267 24.7835 26.3949 24.2 26.3949H15.4ZM2.47547e-05 21.9949C0.00112817 17.1717 1.58728 12.4824 4.51438 8.64887C7.44148 4.81532 11.5473 2.04995 16.1999 0.778339C20.8526 -0.493269 25.7942 -0.200632 30.2642 1.61121C34.7342 3.42306 38.485 6.65369 40.9392 10.8059C43.3933 14.9581 44.415 19.8018 43.8468 24.5915C43.2786 29.3812 41.1522 33.8515 37.7947 37.3143C34.4371 40.7771 30.0347 43.0406 25.2648 43.7564C20.4949 44.4721 15.622 43.6005 11.396 41.2757L2.84242 43.8805C2.4609 43.9967 2.05496 44.0071 1.66803 43.9104C1.2811 43.8137 0.927728 43.6137 0.645713 43.3316C0.363699 43.0496 0.163652 42.6963 0.0669693 42.3093C-0.029713 41.9224 -0.0193935 41.5165 0.0968244 41.1349L2.70162 32.5681C0.923823 29.328 -0.00552998 25.6908 2.47547e-05 21.9949V21.9949ZM22 4.39497C18.8757 4.39471 15.8077 5.22611 13.111 6.80377C10.4144 8.38144 8.18627 10.6485 6.65558 13.3721C5.12489 16.0957 4.3468 19.1777 4.40122 22.3015C4.45563 25.4253 5.3406 28.4783 6.96522 31.1469C7.12649 31.412 7.22985 31.7083 7.26853 32.0161C7.3072 32.324 7.28031 32.6366 7.18962 32.9333L5.50442 38.4729L11.0352 36.7877C11.3329 36.697 11.6465 36.6705 11.9552 36.71C12.2639 36.7494 12.5607 36.8539 12.826 37.0165C15.1456 38.4327 17.7616 39.2925 20.4691 39.5285C23.1766 39.7644 25.9019 39.3702 28.4315 38.3766C30.9611 37.3831 33.2263 35.8172 35.0494 33.8017C36.8726 31.7862 38.2042 29.3759 38.94 26.7597C39.6757 24.1434 39.7956 21.3923 39.2902 18.722C38.7848 16.0517 37.6679 13.5347 36.0269 11.3683C34.386 9.20183 32.2656 7.44485 29.832 6.23503C27.3984 5.0252 24.7177 4.3954 22 4.39497V4.39497Z" fill="white"/>
</svg>
