<svg width="38" height="38" viewBox="0 0 38 38" fill="none" xmlns="http://www.w3.org/2000/svg">
<path d="M9.31648 20.5H2.64982C2.20779 20.5 1.78387 20.6756 1.47131 20.9881C1.15875 21.3007 0.983154 21.7246 0.983154 22.1667V35.5C0.983154 35.942 1.15875 36.3659 1.47131 36.6785C1.78387 36.991 2.20779 37.1666 2.64982 37.1666H9.31648C9.75851 37.1666 10.1824 36.991 10.495 36.6785C10.8076 36.3659 10.9831 35.942 10.9831 35.5V22.1667C10.9831 21.7246 10.8076 21.3007 10.495 20.9881C10.1824 20.6756 9.75851 20.5 9.31648 20.5ZM7.64982 33.8333H4.31649V23.8333H7.64982V33.8333ZM35.9831 13.8333H29.3165C28.8744 13.8333 28.4505 14.0089 28.138 14.3215C27.8254 14.634 27.6498 15.058 27.6498 15.5V35.5C27.6498 35.942 27.8254 36.3659 28.138 36.6785C28.4505 36.991 28.8744 37.1666 29.3165 37.1666H35.9831C36.4252 37.1666 36.8491 36.991 37.1617 36.6785C37.4742 36.3659 37.6498 35.942 37.6498 35.5V15.5C37.6498 15.058 37.4742 14.634 37.1617 14.3215C36.8491 14.0089 36.4252 13.8333 35.9831 13.8333ZM34.3165 33.8333H30.9831V17.1667H34.3165V33.8333ZM22.6498 0.5H15.9831C15.5411 0.5 15.1172 0.675595 14.8046 0.988155C14.4921 1.30072 14.3165 1.72464 14.3165 2.16667V35.5C14.3165 35.942 14.4921 36.3659 14.8046 36.6785C15.1172 36.991 15.5411 37.1666 15.9831 37.1666H22.6498C23.0918 37.1666 23.5158 36.991 23.8283 36.6785C24.1409 36.3659 24.3165 35.942 24.3165 35.5V2.16667C24.3165 1.72464 24.1409 1.30072 23.8283 0.988155C23.5158 0.675595 23.0918 0.5 22.6498 0.5ZM20.9831 33.8333H17.6498V3.83333H20.9831V33.8333Z" fill="black"/>
</svg>
