<svg width="37" height="37" viewBox="0 0 37 37" fill="none" xmlns="http://www.w3.org/2000/svg">
<path d="M8.33333 20H1.66667C1.22464 20 0.800716 20.1756 0.488155 20.4881C0.175595 20.8007 0 21.2246 0 21.6667V35C0 35.442 0.175595 35.8659 0.488155 36.1785C0.800716 36.4911 1.22464 36.6666 1.66667 36.6666H8.33333C8.77536 36.6666 9.19928 36.4911 9.51184 36.1785C9.8244 35.8659 10 35.442 10 35V21.6667C10 21.2246 9.8244 20.8007 9.51184 20.4881C9.19928 20.1756 8.77536 20 8.33333 20ZM6.66666 33.3333H3.33333V23.3333H6.66666V33.3333ZM35 13.3333H28.3333C27.8913 13.3333 27.4674 13.5089 27.1548 13.8215C26.8422 14.134 26.6667 14.558 26.6667 15V35C26.6667 35.442 26.8422 35.8659 27.1548 36.1785C27.4674 36.4911 27.8913 36.6666 28.3333 36.6666H35C35.442 36.6666 35.8659 36.4911 36.1785 36.1785C36.4911 35.8659 36.6666 35.442 36.6666 35V15C36.6666 14.558 36.4911 14.134 36.1785 13.8215C35.8659 13.5089 35.442 13.3333 35 13.3333ZM33.3333 33.3333H30V16.6667H33.3333V33.3333ZM21.6667 0H15C14.558 0 14.134 0.175595 13.8215 0.488155C13.5089 0.800715 13.3333 1.22464 13.3333 1.66667V35C13.3333 35.442 13.5089 35.8659 13.8215 36.1785C14.134 36.4911 14.558 36.6666 15 36.6666H21.6667C22.1087 36.6666 22.5326 36.4911 22.8452 36.1785C23.1577 35.8659 23.3333 35.442 23.3333 35V1.66667C23.3333 1.22464 23.1577 0.800715 22.8452 0.488155C22.5326 0.175595 22.1087 0 21.6667 0ZM20 33.3333H16.6667V3.33333H20V33.3333Z" fill="white"/>
</svg>
