<svg width="185" height="32" viewBox="0 0 185 32" fill="none" xmlns="http://www.w3.org/2000/svg">
<path d="M0 28.4136V0.267395H10.9148C12.0701 0.267395 13.1272 0.53168 14.0859 1.06025C15.0447 1.56239 15.8805 2.24953 16.5934 3.12166C17.3063 3.96737 17.8594 4.93201 18.2527 6.01557C18.646 7.0727 18.8427 8.15627 18.8427 9.26626C18.8427 10.7991 18.5231 12.2659 17.884 13.6666C17.2448 15.0409 16.3476 16.1641 15.1922 17.0362C14.0368 17.8819 12.6847 18.3048 11.136 18.3048H3.31868V28.4136H0ZM3.31868 15.1334H10.9516C11.8612 15.1334 12.6478 14.8691 13.3116 14.3405C13.9999 13.8119 14.5284 13.0984 14.8972 12.1998C15.2905 11.3012 15.4872 10.3234 15.4872 9.26626C15.4872 8.15627 15.2659 7.1652 14.8234 6.29307C14.3809 5.3945 13.8032 4.69415 13.0903 4.19201C12.3774 3.68987 11.5908 3.4388 10.7304 3.4388H3.31868V15.1334ZM22.9744 28.4136V0.267395H26.2931V25.2422H40.8952V28.4136H22.9744ZM52.4731 0.267395H55.2755L65.969 28.4136H62.4291L59.3317 20.168H48.3432L45.2826 28.4136H41.7427L52.4731 0.267395ZM58.5942 17.393L53.8743 4.39022L49.0069 17.393H58.5942ZM67.5089 25.6386L84.3973 3.4388H67.8407V0.267395H88.2691V3.04238L71.6756 25.2422H88.2691V28.4136H67.5089V25.6386ZM100.69 0.267395H103.493L114.186 28.4136H110.646L107.549 20.168H96.5604L93.4998 28.4136H89.9599L100.69 0.267395ZM106.811 17.393L102.092 4.39022L97.2241 17.393H106.811Z" fill="#DF16BF"/>
<path d="M125.402 26.1415V23.5516H126.89V26.1415H125.402ZM134.744 26.4058C133.668 26.4058 132.668 26.2208 131.743 25.8508C130.836 25.4632 130.037 24.8994 129.348 24.1594L130.054 22.8909C130.793 23.6133 131.533 24.1418 132.273 24.4766C133.03 24.7937 133.828 24.9523 134.669 24.9523C135.677 24.9523 136.501 24.7408 137.14 24.318C137.796 23.8775 138.124 23.252 138.124 22.4416C138.124 21.8954 137.964 21.4813 137.645 21.1994C137.342 20.8999 136.896 20.662 136.308 20.4859C135.736 20.3097 135.047 20.107 134.24 19.878C133.332 19.6137 132.567 19.3406 131.945 19.0587C131.34 18.7592 130.878 18.3892 130.558 17.9487C130.255 17.4906 130.104 16.9004 130.104 16.178C130.104 15.2971 130.314 14.5571 130.735 13.9581C131.172 13.359 131.76 12.9098 132.5 12.6102C133.256 12.2931 134.097 12.1345 135.022 12.1345C136.031 12.1345 136.922 12.3019 137.695 12.6366C138.468 12.9714 139.099 13.4383 139.586 14.0373L138.754 15.253C138.3 14.6892 137.737 14.2752 137.064 14.0109C136.409 13.729 135.694 13.5881 134.921 13.5881C134.383 13.5881 133.87 13.6673 133.383 13.8259C132.895 13.9669 132.492 14.2135 132.172 14.5659C131.869 14.9006 131.718 15.3676 131.718 15.9666C131.718 16.7066 131.979 17.2176 132.5 17.4995C133.021 17.7813 133.811 18.0809 134.87 18.398C135.862 18.6799 136.728 18.9619 137.468 19.2437C138.208 19.5256 138.779 19.9044 139.183 20.3802C139.586 20.8383 139.788 21.4813 139.788 22.3094C139.788 23.5956 139.326 24.5999 138.401 25.3223C137.476 26.0447 136.258 26.4058 134.744 26.4058ZM153.668 26.1415H151.954V18.4509C151.954 15.3323 150.945 13.7731 148.927 13.7731C148.272 13.7731 147.633 13.9492 147.011 14.3016C146.389 14.6364 145.834 15.1033 145.346 15.7023C144.875 16.2838 144.539 16.9533 144.338 17.7109V26.1415H142.623V6.84882H144.338V15.4909C144.859 14.469 145.582 13.6585 146.506 13.0595C147.448 12.4428 148.448 12.1345 149.507 12.1345C150.516 12.1345 151.323 12.3899 151.928 12.9009C152.534 13.3942 152.971 14.0902 153.24 14.9888C153.525 15.8697 153.668 16.9004 153.668 18.0809V26.1415ZM162.924 26.4058C161.663 26.4058 160.536 26.0798 159.544 25.428C158.569 24.7761 157.804 23.9127 157.25 22.838C156.695 21.7456 156.417 20.5651 156.417 19.2966C156.417 18.0104 156.695 16.8299 157.25 15.7552C157.821 14.6628 158.595 13.7906 159.57 13.1388C160.562 12.4692 161.68 12.1345 162.924 12.1345C164.185 12.1345 165.303 12.4692 166.278 13.1388C167.27 13.7906 168.043 14.6628 168.598 15.7552C169.17 16.8299 169.455 18.0104 169.455 19.2966C169.455 20.5651 169.178 21.7456 168.623 22.838C168.068 23.9127 167.295 24.7761 166.303 25.428C165.328 26.0798 164.201 26.4058 162.924 26.4058ZM158.157 19.323C158.157 20.3449 158.368 21.2787 158.788 22.1244C159.225 22.9525 159.805 23.6133 160.528 24.1066C161.251 24.5823 162.05 24.8201 162.924 24.8201C163.798 24.8201 164.597 24.5734 165.32 24.0801C166.042 23.5868 166.622 22.9173 167.06 22.0716C167.497 21.2259 167.715 20.292 167.715 19.2702C167.715 18.2483 167.497 17.3145 167.06 16.4687C166.622 15.623 166.042 14.9535 165.32 14.4602C164.597 13.9669 163.798 13.7202 162.924 13.7202C162.066 13.7202 161.276 13.9756 160.553 14.4866C159.83 14.9799 159.25 15.6495 158.813 16.4952C158.376 17.3409 158.157 18.2835 158.157 19.323ZM179.032 26.4058C177.939 26.4058 176.955 26.1063 176.081 25.5073C175.224 24.9082 174.543 24.1682 174.038 23.2873V31.7708H172.323V12.3723H173.862V15.0416C174.383 14.1783 175.072 13.4823 175.93 12.9538C176.804 12.4076 177.745 12.1345 178.754 12.1345C179.662 12.1345 180.494 12.3371 181.251 12.7423C182.007 13.1299 182.663 13.6585 183.218 14.328C183.789 14.9976 184.227 15.764 184.529 16.6273C184.832 17.473 184.983 18.354 184.983 19.2702C184.983 20.5563 184.731 21.7456 184.227 22.838C183.739 23.9127 183.041 24.7761 182.133 25.428C181.242 26.0798 180.208 26.4058 179.032 26.4058ZM178.552 24.8201C179.511 24.8201 180.334 24.5558 181.024 24.0273C181.73 23.4811 182.276 22.7851 182.663 21.9394C183.05 21.0937 183.243 20.204 183.243 19.2702C183.243 18.2835 183.024 17.3673 182.587 16.5216C182.15 15.6759 181.562 14.9976 180.822 14.4866C180.099 13.9756 179.275 13.7202 178.351 13.7202C177.779 13.7202 177.174 13.8788 176.535 14.1959C175.913 14.4955 175.358 14.9095 174.87 15.438C174.4 15.949 174.122 16.5128 174.038 17.1295V21.358C174.425 22.327 175.03 23.1463 175.854 23.8158C176.678 24.4854 177.577 24.8201 178.552 24.8201Z" fill="black"/>
</svg>
