<svg width="27" height="27" viewBox="0 0 27 27" fill="none" xmlns="http://www.w3.org/2000/svg">
<path fill-rule="evenodd" clip-rule="evenodd" d="M13.5 4.05C13.8581 4.05 14.2015 4.19223 14.4546 4.44541C14.7078 4.69858 14.85 5.04196 14.85 5.4V12.15H21.6C21.9581 12.15 22.3015 12.2922 22.5546 12.5454C22.8078 12.7986 22.95 13.142 22.95 13.5C22.95 13.858 22.8078 14.2014 22.5546 14.4546C22.3015 14.7078 21.9581 14.85 21.6 14.85H14.85V21.6C14.85 21.958 14.7078 22.3014 14.4546 22.5546C14.2015 22.8078 13.8581 22.95 13.5 22.95C13.142 22.95 12.7986 22.8078 12.5455 22.5546C12.2923 22.3014 12.15 21.958 12.15 21.6V14.85H5.40005C5.04201 14.85 4.69863 14.7078 4.44545 14.4546C4.19228 14.2014 4.05005 13.858 4.05005 13.5C4.05005 13.142 4.19228 12.7986 4.44545 12.5454C4.69863 12.2922 5.04201 12.15 5.40005 12.15H12.15V5.4C12.15 5.04196 12.2923 4.69858 12.5455 4.44541C12.7986 4.19223 13.142 4.05 13.5 4.05Z" fill="#DF16BF"/>
</svg>
