<svg width="14" height="13" viewBox="0 0 14 13" fill="none" xmlns="http://www.w3.org/2000/svg">
<path d="M1.90432 0.269939L6.76432 5.12994L11.6043 0.289939C11.6891 0.199656 11.7913 0.127433 11.9047 0.0776011C12.0181 0.0277687 12.1405 0.00135331 12.2643 -6.10352e-05C12.5295 -6.10352e-05 12.7839 0.105296 12.9714 0.292832C13.159 0.480368 13.2643 0.734722 13.2643 0.999939C13.2667 1.12254 13.2439 1.24433 13.1975 1.35782C13.151 1.47131 13.0819 1.57412 12.9943 1.65994L8.10432 6.49994L12.9943 11.3899C13.1591 11.5512 13.2558 11.7695 13.2643 11.9999C13.2643 12.2652 13.159 12.5195 12.9714 12.707C12.7839 12.8946 12.5295 12.9999 12.2643 12.9999C12.1369 13.0052 12.0097 12.984 11.8909 12.9375C11.7722 12.891 11.6643 12.8203 11.5743 12.7299L6.76432 7.86994L1.91432 12.7199C1.82983 12.8072 1.72889 12.8769 1.61732 12.9249C1.50576 12.973 1.38579 12.9985 1.26432 12.9999C0.999106 12.9999 0.744752 12.8946 0.557216 12.707C0.36968 12.5195 0.264323 12.2652 0.264323 11.9999C0.261991 11.8773 0.284738 11.7556 0.331168 11.6421C0.377597 11.5286 0.44673 11.4258 0.534323 11.3399L5.42432 6.49994L0.534323 1.60994C0.369508 1.4487 0.272862 1.23035 0.264323 0.999939C0.264323 0.734722 0.36968 0.480368 0.557216 0.292832C0.744752 0.105296 0.999106 -6.10352e-05 1.26432 -6.10352e-05C1.50432 0.00293896 1.73432 0.0999389 1.90432 0.269939Z" fill="white"/>
</svg>
